# Blender v3.6.5 OBJ File: ''
# www.blender.org
mtllib buzzlightyLeftThigh1.mtl
o buzzlightyLeftThigh_buzzlighty.001
v 0.093562 0.230415 0.029078
v 0.075366 0.246761 0.045503
v 0.034911 0.231564 0.028544
v 0.052713 0.246365 0.045446
v 0.034911 0.231564 0.028544
v 0.028958 0.223447 0.005026
v 0.093562 0.230415 0.029078
v 0.100168 0.220620 0.004605
v 0.015182 0.355247 0.022549
v 0.028958 0.223447 0.005026
v 0.034911 0.231564 0.028544
v 0.051999 0.264536 -0.025730
v 0.075206 0.264727 -0.026014
v 0.028958 0.223447 0.005026
v 0.100168 0.220620 0.004605
v 0.092242 0.382193 0.017759
v 0.058827 0.397428 0.007182
v 0.059382 0.380488 0.043736
v 0.106180 0.358704 0.022588
v 0.026510 0.379696 0.017730
v 0.060689 0.356343 0.058550
v 0.015182 0.355247 0.022549
v 0.075366 0.246761 0.045503
v 0.052713 0.246365 0.045446
v 0.093562 0.230415 0.029078
v 0.015182 0.355247 0.022549
v 0.052713 0.246365 0.045446
v 0.060689 0.356343 0.058550
v 0.034911 0.231564 0.028544
v 0.079678 0.382454 -0.024302
v 0.092242 0.382193 0.017759
v 0.088787 0.359066 -0.035640
v 0.058827 0.397428 0.007182
v 0.106180 0.358704 0.022588
v 0.100168 0.220620 0.004605
v 0.075206 0.264727 -0.026014
v 0.093562 0.230415 0.029078
v 0.026510 0.379696 0.017730
v 0.058827 0.397428 0.007182
v 0.039054 0.380911 -0.024319
v 0.032547 0.356929 -0.035664
v 0.015182 0.355247 0.022549
v 0.028958 0.223447 0.005026
v 0.051999 0.264536 -0.025730
v 0.039054 0.380911 -0.024319
v 0.058827 0.397428 0.007182
v 0.079678 0.382454 -0.024302
v 0.032547 0.356929 -0.035664
v 0.088787 0.359066 -0.035640
v 0.051999 0.264536 -0.025730
v 0.075206 0.264727 -0.026014
vt 0.103620 0.833688
vt 0.132719 0.859263
vt 0.197406 0.832788
vt 0.168942 0.859175
vt 0.197406 0.832788
vt 0.206917 0.795731
vt 0.103620 0.833688
vt 0.093049 0.795169
vt 0.522424 0.264124
vt 0.515184 0.210609
vt 0.505609 0.218908
vt 0.179631 0.745842
vt 0.123366 0.745395
vt 0.206917 0.795731
vt 0.093049 0.795169
vt 0.471109 0.268185
vt 0.571904 0.283631
vt 0.571904 0.260726
vt 0.464112 0.250389
vt 0.471519 0.268059
vt 0.571904 0.247995
vt 0.464033 0.248956
vt 0.548346 0.189106
vt 0.589735 0.189459
vt 0.509698 0.182921
vt 0.464112 0.250389
vt 0.548346 0.189106
vt 0.571904 0.247995
vt 0.509698 0.182921
vt 0.507923 0.267174
vt 0.530715 0.265371
vt 0.509064 0.254252
vt 0.518755 0.278157
vt 0.531340 0.251735
vt 0.520935 0.194997
vt 0.505755 0.213571
vt 0.533317 0.200117
vt 0.509468 0.266142
vt 0.513921 0.277605
vt 0.525069 0.268533
vt 0.526826 0.255731
vt 0.507750 0.250863
vt 0.517911 0.198055
vt 0.531978 0.216021
vt 0.519912 0.264619
vt 0.570818 0.289047
vt 0.619023 0.266898
vt 0.526218 0.241681
vt 0.622004 0.243745
vt 0.544492 0.170531
vt 0.594650 0.170858
vn -0.0204 -0.7199 0.6938
vn -0.0132 -0.7288 0.6846
vn -0.0067 -0.7367 0.6762
vn 0.0116 -0.7583 0.6518
vn -0.0215 -0.9434 0.3310
vn -0.0253 -0.9400 0.3403
vn -0.0321 -0.9336 0.3568
vn -0.0348 -0.9310 0.3632
vn -0.9479 -0.1373 0.2873
vn -0.0049 -0.5975 -0.8019
vn -0.0183 -0.5877 -0.8089
vn -0.0218 -0.5851 -0.8107
vn -0.0279 -0.5806 -0.8137
vn 0.4568 0.6383 0.6197
vn -0.0340 0.9066 0.4206
vn -0.0311 0.6904 0.7228
vn 0.6005 0.2226 0.7680
vn -0.5076 0.5947 0.6235
vn 0.2552 0.3074 0.9167
vn -0.5730 0.4058 0.7120
vn 0.4247 -0.0633 0.9031
vn -0.0004 -0.1183 0.9930
vn 0.6566 -0.0265 0.7538
vn -0.6250 -0.0517 0.7789
vn -0.6481 -0.0638 0.7589
vn -0.6190 -0.0485 0.7839
vn -0.6565 -0.0683 0.7512
vn 0.7489 0.6251 -0.2198
vn 0.7420 0.6341 -0.2177
vn 0.9221 0.1948 -0.3343
vn 0.4446 0.8867 -0.1273
vn 0.9495 0.1978 -0.2434
vn 0.9910 -0.0950 -0.0940
vn 0.6314 -0.1681 -0.7570
vn 0.9540 -0.0792 0.2892
vn -0.7966 0.5625 -0.2214
vn -0.5087 0.8515 -0.1272
vn -0.8035 0.5517 -0.2238
vn -0.9340 0.1184 -0.3372
vn -0.9500 0.1396 -0.2793
vn -0.8138 -0.1493 -0.5616
vn -0.6246 -0.2123 -0.7515
vn -0.0236 0.6298 -0.7764
vn -0.0338 0.8937 -0.4474
vn -0.0235 0.6284 -0.7776
vn -0.0056 0.1580 -0.9874
vn -0.0069 0.1566 -0.9876
vn -0.0062 -0.1019 -0.9948
vn -0.0114 -0.0999 -0.9949
usemtl Material.036
s 1
f 1/1/1 2/2/2 3/3/3
f 3/3/3 2/2/2 4/4/4
f 5/5/5 6/6/6 7/7/7
f 7/7/7 6/6/6 8/8/8
f 9/9/9 10/10/9 11/11/9
f 12/12/10 13/13/11 14/14/12
f 14/14/12 13/13/11 15/15/13
f 16/16/14 17/17/15 18/18/16
f 16/16/14 18/18/16 19/19/17
f 18/18/16 17/17/15 20/20/18
f 19/19/17 18/18/16 21/21/19
f 22/22/20 18/18/16 20/20/18
f 21/21/19 18/18/16 22/22/20
f 21/21/19 23/23/21 19/19/17
f 21/21/19 24/24/22 23/23/21
f 19/19/17 23/23/21 25/25/23
f 26/26/24 27/27/25 28/28/26
f 29/29/27 27/27/25 26/26/24
f 30/30/28 31/31/29 32/32/30
f 30/30/28 33/33/31 31/31/29
f 32/32/30 31/31/29 34/34/32
f 32/32/30 34/34/32 35/35/33
f 32/32/30 35/35/33 36/36/34
f 34/34/32 37/37/35 35/35/33
f 38/38/36 39/39/37 40/40/38
f 41/41/39 38/38/36 40/40/38
f 42/42/40 38/38/36 41/41/39
f 43/43/41 42/42/40 41/41/39
f 43/43/41 41/41/39 44/44/42
f 45/45/43 46/46/44 47/47/45
f 45/45/43 47/47/45 48/48/46
f 48/48/46 47/47/45 49/49/47
f 49/49/47 50/50/48 48/48/46
f 51/51/49 50/50/48 49/49/47
