# Blender v3.6.5 OBJ File: ''
# www.blender.org
mtllib buzzlightyRightFoot1.mtl
o buzzlightyRightFoot_buzzlighty.002
v -0.125257 0.020073 0.019315
v -0.123674 0.020235 0.044778
v -0.099285 0.042140 0.029769
v -0.101581 0.054966 -0.025718
v -0.096083 0.035364 0.061486
v -0.121983 0.019536 -0.029559
v -0.071215 0.064579 -0.023784
v -0.071172 0.047106 0.031537
v -0.113405 0.019152 -0.064176
v -0.071256 0.040930 0.064324
v -0.043026 0.042313 0.029788
v -0.098546 0.059465 -0.059841
v -0.046395 0.035518 0.061479
v -0.040789 0.055154 -0.025726
v -0.090766 0.051860 -0.079867
v -0.018620 0.020300 0.044762
v -0.016860 0.020146 0.019329
v -0.071255 0.071580 -0.063591
v -0.101633 0.018864 -0.090503
v -0.043862 0.059634 -0.059848
v -0.020094 0.019605 -0.029577
v -0.071211 0.060987 -0.082243
v -0.028684 0.019210 -0.064191
v -0.051639 0.051940 -0.079872
v -0.040465 0.018906 -0.090514
v -0.096083 0.035364 0.061486
v -0.123674 0.020235 0.044778
v -0.102759 0.020671 0.087168
v -0.071256 0.040930 0.064324
v -0.071154 0.020769 0.094934
v -0.046395 0.035518 0.061479
v -0.037802 0.020711 0.087156
v -0.018620 0.020300 0.044762
v -0.113368 0.004444 -0.064351
v -0.121945 0.004834 -0.029734
v -0.113405 0.019152 -0.064176
v -0.101633 0.018864 -0.090503
v -0.101598 0.004152 -0.090678
v -0.121983 0.019536 -0.029559
v -0.125223 0.005379 0.019168
v -0.125257 0.020073 0.019315
v -0.123636 0.005636 0.044598
v -0.123674 0.020235 0.044778
v -0.102708 0.006131 0.086993
v -0.037751 0.006176 0.086981
v -0.071103 0.006242 0.094759
v -0.018581 0.005709 0.044579
v -0.123636 0.005636 0.044598
v -0.071012 0.004118 -0.095472
v -0.071049 0.018831 -0.095297
v -0.040430 0.004194 -0.090689
v -0.101598 0.004152 -0.090678
v -0.040465 0.018906 -0.090514
v -0.101633 0.018864 -0.090503
v -0.028646 0.004503 -0.064366
v -0.028684 0.019210 -0.064191
v -0.020057 0.004904 -0.029752
v -0.020094 0.019605 -0.029577
v -0.016822 0.005454 0.019146
v -0.016860 0.020146 0.019329
v -0.018581 0.005709 0.044579
v -0.018620 0.020300 0.044762
v -0.071012 0.004118 -0.095472
v -0.040430 0.004194 -0.090689
v -0.101598 0.004152 -0.090678
v -0.028646 0.004503 -0.064366
v -0.113368 0.004444 -0.064351
v -0.121945 0.004834 -0.029734
v -0.020057 0.004904 -0.029752
v -0.125223 0.005379 0.019168
v -0.016822 0.005454 0.019146
v -0.018581 0.005709 0.044579
v -0.123636 0.005636 0.044598
v -0.018581 0.005709 0.044579
v -0.018620 0.020300 0.044762
v -0.037751 0.006176 0.086981
v -0.037802 0.020711 0.087156
v -0.071103 0.006242 0.094759
v -0.071154 0.020769 0.094934
v -0.102759 0.020671 0.087168
v -0.102708 0.006131 0.086993
v -0.123674 0.020235 0.044778
v -0.123636 0.005636 0.044598
v -0.071211 0.060987 -0.082243
v -0.071049 0.018831 -0.095297
v -0.090766 0.051860 -0.079867
v -0.051639 0.051940 -0.079872
v -0.101633 0.018864 -0.090503
v -0.040465 0.018906 -0.090514
v -0.047979 0.082339 -0.000044
v -0.048900 0.057355 -0.009594
v -0.037073 0.077866 -0.026096
v -0.047308 0.103408 -0.016534
v -0.049197 0.053466 -0.035770
v -0.047548 0.099280 -0.042433
v -0.048472 0.074352 -0.052115
v -0.070763 0.116030 -0.012018
v -0.071158 0.109979 -0.049921
v -0.095159 0.105346 -0.016309
v -0.047308 0.103408 -0.016534
v -0.095459 0.101226 -0.042210
v -0.047548 0.099280 -0.042433
v -0.071844 0.085153 0.012120
v -0.072645 0.073512 -0.064107
v -0.047979 0.082339 -0.000044
v -0.095973 0.084282 0.000195
v -0.096565 0.076308 -0.051869
v -0.048472 0.074352 -0.052115
v -0.097332 0.055422 -0.035536
v -0.049197 0.053466 -0.035770
v -0.073736 0.042928 -0.040176
v -0.073354 0.048574 -0.001898
v -0.097084 0.059322 -0.009378
v -0.048900 0.057355 -0.009594
v -0.071844 0.085153 0.012120
v -0.095973 0.084282 0.000195
v -0.047979 0.082339 -0.000044
v -0.095973 0.084282 0.000195
v -0.095159 0.105346 -0.016309
v -0.107421 0.080716 -0.025759
v -0.097084 0.059322 -0.009378
v -0.095459 0.101226 -0.042210
v -0.097332 0.055422 -0.035536
v -0.096565 0.076308 -0.051869
vt 0.484347 0.701924
vt 0.482127 0.705821
vt 0.474080 0.700641
vt 0.475460 0.684805
vt 0.472485 0.706264
vt 0.488650 0.687293
vt 0.466910 0.684222
vt 0.466910 0.700455
vt 0.490261 0.678176
vt 0.466910 0.706160
vt 0.459794 0.700559
vt 0.476229 0.676621
vt 0.461329 0.706210
vt 0.459752 0.684102
vt 0.477109 0.671466
vt 0.451655 0.705682
vt 0.449449 0.701742
vt 0.466910 0.675059
vt 0.490777 0.675278
vt 0.459726 0.675902
vt 0.445361 0.686907
vt 0.467318 0.667591
vt 0.443942 0.677710
vt 0.457131 0.670975
vt 0.443482 0.674792
vt 0.531214 0.115381
vt 0.558492 0.115381
vt 0.533275 0.145578
vt 0.516157 0.115381
vt 0.516035 0.151840
vt 0.501085 0.115381
vt 0.498816 0.145386
vt 0.473720 0.115381
vt 0.934544 0.864988
vt 0.934544 0.846804
vt 0.946322 0.864969
vt 0.946321 0.874616
vt 0.934544 0.874632
vt 0.946321 0.846788
vt 0.934544 0.811095
vt 0.946322 0.811107
vt 0.934544 0.797079
vt 0.946322 0.797096
vt 0.347161 0.947551
vt 0.344224 0.923687
vt 0.341228 0.933099
vt 0.359108 0.914998
vt 0.362443 0.953877
vt 0.934544 0.643179
vt 0.946322 0.643161
vt 0.934544 0.655059
vt 0.934544 0.631297
vt 0.946322 0.655043
vt 0.946321 0.631280
vt 0.934544 0.664707
vt 0.946322 0.664687
vt 0.934544 0.682888
vt 0.946321 0.682872
vt 0.934544 0.718569
vt 0.946322 0.718581
vt 0.934544 0.732580
vt 0.946322 0.732597
vt 0.419773 0.929352
vt 0.412475 0.912353
vt 0.416372 0.941576
vt 0.401319 0.910790
vt 0.404713 0.949224
vt 0.391552 0.953846
vt 0.387610 0.909088
vt 0.370958 0.954220
vt 0.366669 0.911866
vt 0.359108 0.914998
vt 0.362443 0.953877
vt 0.934544 0.732580
vt 0.946322 0.732597
vt 0.934544 0.751534
vt 0.946321 0.751557
vt 0.934544 0.764826
vt 0.946322 0.764850
vt 0.946322 0.777494
vt 0.934544 0.777471
vt 0.946322 0.797096
vt 0.934544 0.797079
vt 0.713521 0.654126
vt 0.614488 0.653957
vt 0.705234 0.690819
vt 0.705525 0.690664
vt 0.620417 0.736462
vt 0.620197 0.736623
vt 0.450962 0.940219
vt 0.490743 0.940540
vt 0.471094 0.904122
vt 0.429760 0.904122
vt 0.511346 0.904122
vt 0.450001 0.940047
vt 0.491524 0.940922
vt 0.582794 0.677293
vt 0.568077 0.677293
vt 0.582794 0.717669
vt 0.582794 0.717669
vt 0.568077 0.717669
vt 0.568077 0.717669
vt 0.597841 0.677293
vt 0.553457 0.677293
vt 0.597841 0.717669
vt 0.597841 0.717669
vt 0.553457 0.717669
vt 0.553457 0.717669
vt 0.538804 0.717669
vt 0.538804 0.717669
vt 0.538804 0.677293
vt 0.523998 0.677293
vt 0.523998 0.717669
vt 0.523998 0.717669
vt 0.512596 0.677293
vt 0.512596 0.717669
vt 0.512596 0.717669
vt 0.429238 0.904122
vt 0.450440 0.940176
vt 0.470572 0.904122
vt 0.449479 0.940003
vt 0.490221 0.940496
vt 0.491002 0.940878
vt 0.510825 0.904122
vn -0.7225 0.6877 0.0712
vn -0.6212 0.7743 0.1207
vn -0.4392 0.8722 0.2154
vn -0.6302 0.7738 0.0639
vn -0.3587 0.9087 0.2137
vn -0.8515 0.5055 -0.1397
vn -0.0030 0.9806 0.1962
vn -0.0029 0.9669 0.2552
vn -0.8685 0.4145 -0.2720
vn -0.0035 0.9827 0.1851
vn 0.4365 0.8731 0.2170
vn -0.6909 0.6987 -0.1858
vn 0.3549 0.9096 0.2160
vn 0.6260 0.7772 0.0641
vn -0.6616 0.5922 -0.4599
vn 0.6213 0.7736 0.1245
vn 0.7215 0.6886 0.0729
vn -0.0030 0.9831 -0.1833
vn -0.8361 0.3973 -0.3782
vn 0.6863 0.7028 -0.1870
vn 0.8492 0.5094 -0.1393
vn -0.0013 0.8695 -0.4938
vn 0.8658 0.4199 -0.2722
vn 0.6576 0.5959 -0.4609
vn 0.8334 0.4036 -0.3776
vn -0.4129 0.8327 0.3690
vn -0.5868 0.7591 0.2817
vn -0.3316 0.8365 0.4362
vn 0.0251 0.8502 0.5258
vn 0.0167 0.8489 0.5283
vn 0.3698 0.8375 0.4023
vn 0.2936 0.8673 0.4019
vn 0.5778 0.7757 0.2539
vn -0.9451 0.0015 -0.3268
vn -0.9878 -0.0007 -0.1556
vn -0.9459 0.0015 -0.3244
vn -0.9129 0.0026 -0.4082
vn -0.9129 0.0027 -0.4082
vn -0.9882 -0.0007 -0.1530
vn -1.0000 -0.0023 -0.0031
vn -1.0000 -0.0024 -0.0015
vn -0.9981 -0.0032 0.0622
vn -0.9981 -0.0034 0.0621
vn 0.0007 -0.9999 0.0113
vn 0.0007 -0.9999 0.0115
vn 0.0000 0.0119 -0.9999
vn -0.0004 0.0119 -0.9999
vn 0.6040 0.0109 -0.7969
vn -0.1548 0.0114 -0.9879
vn 0.6102 0.0109 -0.7922
vn 0.9449 0.0063 -0.3272
vn 0.9457 0.0063 -0.3249
vn 0.9879 0.0043 -0.1553
vn 0.9882 0.0043 -0.1528
vn 1.0000 0.0026 0.0005
vn 1.0000 0.0026 0.0024
vn 0.9976 0.0018 0.0690
vn 0.0007 -0.9999 0.0114
vn 0.0007 -0.9999 0.0106
vn 0.0007 -0.9999 0.0101
vn 0.9112 -0.0027 0.4120
vn 0.9112 -0.0025 0.4120
vn 0.6383 -0.0071 0.7698
vn 0.6310 -0.0071 0.7757
vn -0.0055 -0.0121 0.9999
vn -0.0063 -0.0121 0.9999
vn -0.6237 -0.0116 0.7816
vn -0.6287 -0.0115 0.7775
vn -0.8966 -0.0079 0.4427
vn -0.8966 -0.0078 0.4427
vn -0.0008 0.2958 -0.9552
vn -0.0001 0.3327 -0.9431
vn -0.2099 0.3082 -0.9279
vn 0.2091 0.3096 -0.9276
vn -0.1449 0.3465 -0.9268
vn 0.1441 0.3473 -0.9266
vn 0.9237 0.0262 0.3822
vn 0.9119 -0.3351 0.2370
vn 0.9993 -0.0372 -0.0041
vn 0.9362 0.3244 0.1356
vn 0.9078 -0.3928 -0.1470
vn 0.9315 0.2686 -0.2452
vn 0.9166 -0.0908 -0.3893
vn 0.0388 0.9305 0.3643
vn 0.0284 0.7788 -0.6266
vn -0.4259 0.8428 0.3290
vn 0.4953 0.8058 0.3246
vn -0.4322 0.7079 -0.5587
vn 0.4823 0.6712 -0.5629
vn 0.0290 0.6158 0.7874
vn -0.0106 -0.1457 -0.9893
vn 0.4303 0.5478 0.7175
vn -0.3776 0.5801 0.7217
vn -0.4629 -0.1113 -0.8794
vn 0.4437 -0.1476 -0.8840
vn -0.4921 -0.8062 -0.3285
vn 0.4221 -0.8432 -0.3328
vn -0.0390 -0.9280 -0.3704
vn -0.0289 -0.7807 0.6243
vn -0.4820 -0.6731 0.5609
vn 0.4310 -0.7101 0.5567
vn -0.0103 -0.3566 0.9342
vn -0.4122 -0.3102 0.8567
vn 0.3947 -0.3407 0.8533
vn -0.9155 0.0974 0.3904
vn -0.9068 0.3963 0.1438
vn -0.9991 0.0411 0.0048
vn -0.9331 -0.2631 0.2452
vn -0.9099 0.3403 -0.2374
vn -0.9371 -0.3202 -0.1386
vn -0.9243 -0.0190 -0.3811
usemtl Material.041
s 1
f 1/1/1 2/2/2 3/3/3
f 4/4/4 1/1/1 3/3/3
f 3/3/3 2/2/2 5/5/5
f 6/6/6 1/1/1 4/4/4
f 3/3/3 7/7/7 4/4/4
f 5/5/5 8/8/8 3/3/3
f 8/8/8 7/7/7 3/3/3
f 6/6/6 4/4/4 9/9/9
f 10/10/10 8/8/8 5/5/5
f 11/11/11 7/7/7 8/8/8
f 4/4/4 7/7/7 12/12/12
f 9/9/9 4/4/4 12/12/12
f 13/13/13 8/8/8 10/10/10
f 11/11/11 8/8/8 13/13/13
f 14/14/14 7/7/7 11/11/11
f 15/15/15 9/9/9 12/12/12
f 16/16/16 11/11/11 13/13/13
f 17/17/17 14/14/14 11/11/11
f 12/12/12 7/7/7 18/18/18
f 18/18/18 15/15/15 12/12/12
f 17/17/17 11/11/11 16/16/16
f 19/19/19 9/9/9 15/15/15
f 14/14/14 20/20/20 7/7/7
f 7/7/7 20/20/20 18/18/18
f 21/21/21 14/14/14 17/17/17
f 22/22/22 15/15/15 18/18/18
f 20/20/20 14/14/14 23/23/23
f 23/23/23 14/14/14 21/21/21
f 22/22/22 18/18/18 24/24/24
f 20/20/20 23/23/23 24/24/24
f 24/24/24 18/18/18 20/20/20
f 24/24/24 23/23/23 25/25/25
f 26/26/26 27/27/27 28/28/28
f 26/26/26 28/28/28 29/29/29
f 29/29/29 28/28/28 30/30/30
f 29/29/29 30/30/30 31/31/31
f 31/31/31 30/30/30 32/32/32
f 32/32/32 33/33/33 31/31/31
f 34/34/34 35/35/35 36/36/36
f 37/37/37 34/34/34 36/36/36
f 38/38/38 34/34/34 37/37/37
f 36/36/36 35/35/35 39/39/39
f 35/35/35 40/40/40 39/39/39
f 39/39/39 40/40/40 41/41/41
f 40/40/40 42/42/42 41/41/41
f 41/41/41 42/42/42 43/43/43
f 44/44/44 45/45/44 46/46/45
f 44/44/44 47/47/44 45/45/44
f 48/48/44 47/47/44 44/44/44
f 49/49/46 50/50/47 51/51/48
f 49/49/46 52/52/49 50/50/47
f 51/51/48 50/50/47 53/53/50
f 50/50/47 52/52/49 54/54/49
f 51/51/48 53/53/50 55/55/51
f 55/55/51 53/53/50 56/56/52
f 55/55/51 56/56/52 57/57/53
f 57/57/53 56/56/52 58/58/54
f 57/57/53 58/58/54 59/59/55
f 59/59/55 58/58/54 60/60/56
f 59/59/55 60/60/56 61/61/57
f 61/61/57 60/60/56 62/62/57
f 63/63/45 64/64/58 65/65/58
f 66/66/58 65/65/58 64/64/58
f 67/67/58 65/65/58 66/66/58
f 67/67/58 66/66/58 68/68/44
f 68/68/44 66/66/58 69/69/44
f 68/68/44 69/69/44 70/70/59
f 70/70/59 69/69/44 71/71/59
f 71/71/59 72/72/60 70/70/59
f 70/70/59 72/72/60 73/73/60
f 74/74/61 75/75/62 76/76/63
f 76/76/63 75/75/62 77/77/64
f 76/76/63 77/77/64 78/78/65
f 78/78/65 77/77/64 79/79/66
f 80/80/67 78/78/65 79/79/66
f 81/81/68 78/78/65 80/80/67
f 82/82/69 81/81/68 80/80/67
f 83/83/70 81/81/68 82/82/69
f 84/84/71 85/85/72 86/86/73
f 87/87/74 85/85/72 84/84/71
f 86/86/73 85/85/72 88/88/75
f 89/89/76 85/85/72 87/87/74
f 90/90/77 91/91/78 92/92/79
f 93/93/80 90/90/77 92/92/79
f 91/91/78 94/94/81 92/92/79
f 95/95/82 93/93/80 92/92/79
f 94/94/81 96/96/83 92/92/79
f 96/96/83 95/95/82 92/92/79
f 97/97/84 98/98/85 99/99/86
f 100/100/87 98/98/85 97/97/84
f 99/99/86 98/98/85 101/101/88
f 102/102/89 98/98/85 100/100/87
f 103/103/90 100/100/87 97/97/84
f 97/97/84 99/99/86 103/103/90
f 98/98/85 104/104/91 101/101/88
f 102/102/89 104/104/91 98/98/85
f 105/105/92 100/100/87 103/103/90
f 103/103/90 99/99/86 106/106/93
f 101/101/88 104/104/91 107/107/94
f 108/108/95 104/104/91 102/102/89
f 104/104/91 109/109/96 107/107/94
f 108/108/95 110/110/97 104/104/91
f 111/111/98 109/109/96 104/104/91
f 104/104/91 110/110/97 111/111/98
f 111/111/98 112/112/99 109/109/96
f 110/110/97 112/112/99 111/111/98
f 109/109/96 112/112/99 113/113/100
f 114/114/101 112/112/99 110/110/97
f 112/112/99 115/115/102 113/113/100
f 114/114/101 115/115/102 112/112/99
f 113/113/100 115/115/102 116/116/103
f 117/117/104 115/115/102 114/114/101
f 118/118/105 119/119/106 120/120/107
f 121/121/108 118/118/105 120/120/107
f 119/119/106 122/122/109 120/120/107
f 123/123/110 121/121/108 120/120/107
f 122/122/109 124/124/111 120/120/107
f 124/124/111 123/123/110 120/120/107
