# Blender v3.6.5 OBJ File: ''
# www.blender.org
mtllib buzzlightyRightHand1.mtl
o buzzlightyRightHand_buzzlighty.001
v -0.414488 0.592715 0.121549
v -0.425137 0.603352 0.114017
v -0.446981 0.597684 0.155638
v -0.446808 0.580659 0.152143
v -0.457521 0.606191 0.144998
v -0.417450 0.571399 0.128366
v -0.456393 0.607394 0.081811
v -0.415484 0.567924 0.120479
v -0.438046 0.571852 0.137557
v -0.412583 0.587732 0.098678
v -0.488477 0.607891 0.110273
v -0.416330 0.598622 0.095615
v -0.496602 0.598394 0.100602
v -0.416364 0.575120 0.094499
v -0.435290 0.599754 0.075324
v -0.462969 0.598174 0.073005
v -0.421053 0.564668 0.117235
v -0.438801 0.591762 0.071363
v -0.430167 0.564086 0.115972
v -0.494014 0.586428 0.099668
v -0.462193 0.588883 0.073212
v -0.435866 0.576294 0.073838
v -0.457658 0.576095 0.079350
v -0.485122 0.581545 0.108810
v -0.485122 0.581545 0.108810
v -0.445065 0.570054 0.127729
v -0.457221 0.579519 0.140369
v -0.457658 0.576095 0.079350
v -0.438046 0.571852 0.137557
v -0.446808 0.580659 0.152143
v -0.430167 0.564086 0.115972
v -0.416364 0.575120 0.094499
v -0.435866 0.576294 0.073838
v -0.416330 0.598622 0.095615
v -0.412583 0.587732 0.098678
v -0.407008 0.598129 0.086483
v -0.423332 0.599528 0.066295
v -0.405157 0.587574 0.088938
v -0.435290 0.599754 0.075324
v -0.416364 0.575120 0.094499
v -0.427168 0.590968 0.062410
v -0.438801 0.591762 0.071363
v -0.408884 0.574881 0.086242
v -0.435866 0.576294 0.073838
v -0.424811 0.576251 0.065692
v -0.427168 0.590968 0.062410
v -0.438801 0.591762 0.071363
v -0.427168 0.590968 0.062410
v -0.405405 0.584506 0.067047
v -0.424811 0.576251 0.065692
v -0.408884 0.574881 0.086242
v -0.405157 0.587574 0.088938
v -0.407008 0.598129 0.086483
v -0.423332 0.599528 0.066295
v -0.427168 0.590968 0.062410
v -0.430417 0.571607 0.123721
v -0.430167 0.564086 0.115972
v -0.421053 0.564668 0.117235
v -0.445065 0.570054 0.127729
v -0.415484 0.567924 0.120479
v -0.438046 0.571852 0.137557
v -0.417450 0.571399 0.128366
v -0.488477 0.607891 0.110273
v -0.485122 0.581545 0.108810
v -0.457521 0.606191 0.144998
v -0.496602 0.598394 0.100602
v -0.457221 0.579519 0.140369
v -0.494014 0.586428 0.099668
v -0.446981 0.597684 0.155638
v -0.446808 0.580659 0.152143
v -0.495388 0.546916 0.159784
v -0.492489 0.566066 0.157161
v -0.493692 0.552505 0.169895
v -0.505330 0.552336 0.158391
v -0.491803 0.566802 0.169214
v -0.504521 0.566895 0.156537
v -0.505403 0.567844 0.170170
v -0.505598 0.548287 0.170035
v -0.478516 0.593397 0.156578
v -0.456058 0.589876 0.136364
v -0.482061 0.600587 0.147943
v -0.492183 0.598118 0.157506
v -0.463052 0.602155 0.129680
v -0.479612 0.590099 0.144789
v -0.491803 0.566802 0.169214
v -0.470323 0.590866 0.121632
v -0.463046 0.581133 0.128726
v -0.492489 0.566066 0.157161
v -0.454870 0.593595 0.121012
v -0.454870 0.593595 0.121012
v -0.492455 0.593587 0.143727
v -0.492455 0.593587 0.143727
v -0.470323 0.590866 0.121632
v -0.504521 0.566895 0.156537
v -0.504521 0.566895 0.156537
v -0.505403 0.567844 0.170170
v -0.493692 0.552505 0.169895
v -0.505598 0.548287 0.170035
v -0.495388 0.546916 0.159784
v -0.505330 0.552336 0.158391
v -0.490790 0.592585 0.142846
v -0.469138 0.591951 0.122883
v -0.492825 0.601160 0.134396
v -0.491419 0.590739 0.131827
v -0.475026 0.603028 0.117283
v -0.497546 0.571876 0.137813
v -0.503073 0.595621 0.144295
v -0.467076 0.593829 0.108921
v -0.502394 0.592924 0.131867
v -0.497149 0.570940 0.148105
v -0.481155 0.592798 0.110463
v -0.475240 0.584027 0.116194
v -0.508188 0.570865 0.137755
v -0.508989 0.569667 0.149681
v -0.467076 0.593829 0.108921
v -0.481155 0.592798 0.110463
v -0.502394 0.592924 0.131867
v -0.508188 0.570865 0.137755
v -0.497594 0.553753 0.137657
v -0.497546 0.571876 0.137813
v -0.496959 0.558354 0.146546
v -0.506916 0.558177 0.137241
v -0.497149 0.570940 0.148105
v -0.508188 0.570865 0.137755
v -0.508989 0.569667 0.149681
v -0.506317 0.552089 0.146052
v -0.496959 0.558354 0.146546
v -0.506317 0.552089 0.146052
v -0.497594 0.553753 0.137657
v -0.506916 0.558177 0.137241
v -0.485417 0.603648 0.105783
v -0.491244 0.593401 0.099281
v -0.500496 0.601455 0.120265
v -0.478120 0.594421 0.098061
v -0.506539 0.590721 0.114046
v -0.479825 0.592588 0.111074
v -0.507199 0.594540 0.125892
v -0.495537 0.590329 0.124495
v -0.510964 0.568884 0.119169
v -0.496112 0.587564 0.113986
v -0.511986 0.567204 0.130775
v -0.500809 0.570303 0.118839
v -0.485626 0.584646 0.104703
v -0.500477 0.569000 0.128999
v -0.478120 0.594421 0.098061
v -0.491244 0.593401 0.099281
v -0.506539 0.590721 0.114046
v -0.510964 0.568884 0.119169
v -0.500333 0.555561 0.118318
v -0.500809 0.570303 0.118839
v -0.499702 0.557662 0.127355
v -0.508941 0.557720 0.118776
v -0.500477 0.569000 0.128999
v -0.510964 0.568884 0.119169
v -0.511986 0.567204 0.130775
v -0.508857 0.553174 0.127399
v -0.499702 0.557662 0.127355
v -0.508857 0.553174 0.127399
v -0.500333 0.555561 0.118318
v -0.508941 0.557720 0.118776
v -0.487956 0.565602 0.165649
v -0.477349 0.563633 0.165923
v -0.490232 0.552978 0.168750
v -0.488328 0.567874 0.177691
v -0.481848 0.546829 0.171170
v -0.489813 0.549853 0.179675
v -0.479703 0.552722 0.178633
v -0.476391 0.565389 0.176539
v -0.443323 0.592510 0.133448
v -0.451115 0.601715 0.141663
v -0.444928 0.590622 0.147566
v -0.457548 0.591502 0.134531
v -0.468265 0.599363 0.158143
v -0.466683 0.587243 0.167576
v -0.478647 0.587871 0.155839
v -0.476921 0.591730 0.166499
v -0.469021 0.578539 0.157652
v -0.487956 0.565602 0.165649
v -0.476391 0.565389 0.176539
v -0.451336 0.582714 0.140568
v -0.488328 0.567874 0.177691
v -0.443323 0.592510 0.133448
v -0.477349 0.563633 0.165923
v -0.457548 0.591502 0.134531
v -0.487956 0.565602 0.165649
v -0.478647 0.587871 0.155839
v -0.479703 0.552722 0.178633
v -0.489813 0.549853 0.179675
v -0.481848 0.546829 0.171170
v -0.490232 0.552978 0.168750
v -0.448765 0.544020 0.140575
v -0.456457 0.535471 0.151828
v -0.455107 0.554063 0.147558
v -0.448641 0.537410 0.160078
v -0.460865 0.542366 0.157027
v -0.438830 0.547087 0.152374
v -0.453323 0.544405 0.162919
v -0.456420 0.537625 0.160088
v -0.432660 0.554385 0.144694
v -0.446371 0.556725 0.157327
v -0.442856 0.553220 0.130063
v -0.440693 0.565633 0.150182
v -0.449591 0.562102 0.139454
v -0.430411 0.558115 0.139443
v -0.445463 0.577234 0.124750
v -0.434357 0.583237 0.135720
v -0.436165 0.569358 0.113068
v -0.423411 0.575201 0.123956
v -0.440721 0.584620 0.118354
v -0.426319 0.583281 0.118495
v -0.432129 0.589938 0.126907
v -0.433971 0.579039 0.109315
v -0.433028 0.585783 0.117022
vt 0.472957 0.456265
vt 0.468280 0.422042
vt 0.559470 0.443632
vt 0.559470 0.456643
vt 0.559470 0.427502
vt 0.490506 0.459871
vt 0.470950 0.345691
vt 0.473414 0.453043
vt 0.528100 0.427354
vt 0.461942 0.400306
vt 0.559470 0.346764
vt 0.462153 0.394727
vt 0.559470 0.317300
vt 0.461857 0.393448
vt 0.460654 0.360198
vt 0.468734 0.320430
vt 0.470384 0.424417
vt 0.460608 0.340565
vt 0.465909 0.412671
vt 0.559469 0.328510
vt 0.471044 0.330751
vt 0.460345 0.359853
vt 0.472386 0.344117
vt 0.559470 0.351039
vt 0.549382 0.339438
vt 0.583220 0.398197
vt 0.545519 0.404289
vt 0.617473 0.332516
vt 0.577879 0.415753
vt 0.545519 0.445042
vt 0.610564 0.401070
vt 0.599003 0.381847
vt 0.600516 0.348252
vt 0.433095 0.700582
vt 0.432834 0.698081
vt 0.435432 0.700072
vt 0.436989 0.707740
vt 0.435273 0.698050
vt 0.434836 0.708199
vt 0.431921 0.694084
vt 0.437637 0.710520
vt 0.435631 0.710472
vt 0.435323 0.695318
vt 0.433545 0.686726
vt 0.436552 0.687735
vt 0.437078 0.685382
vt 0.435032 0.684986
vt 0.437078 0.685382
vt 0.440024 0.697039
vt 0.436552 0.687735
vt 0.435323 0.695318
vt 0.435273 0.698050
vt 0.435432 0.700072
vt 0.436989 0.707740
vt 0.437637 0.710520
vt 0.425976 0.700167
vt 0.427441 0.697001
vt 0.429411 0.698974
vt 0.421754 0.700073
vt 0.429639 0.701055
vt 0.421613 0.701913
vt 0.427845 0.703164
vt 0.557001 0.374720
vt 0.548278 0.376115
vt 0.557307 0.400209
vt 0.554274 0.367256
vt 0.548375 0.399094
vt 0.549837 0.368155
vt 0.555501 0.409044
vt 0.549115 0.408085
vt 0.546524 0.405406
vt 0.569712 0.405406
vt 0.546524 0.383538
vt 0.546524 0.426950
vt 0.569712 0.383538
vt 0.569712 0.426950
vt 0.569712 0.405406
vt 0.546524 0.405406
vt 0.460299 0.708540
vt 0.454446 0.709508
vt 0.459623 0.705312
vt 0.460885 0.705172
vt 0.454064 0.705921
vt 0.460581 0.712640
vt 0.466059 0.708942
vt 0.453438 0.703318
vt 0.454613 0.712721
vt 0.466192 0.712478
vt 0.450658 0.707050
vt 0.451251 0.712529
vt 0.460473 0.716774
vt 0.460052 0.702506
vt 0.454429 0.716058
vt 0.466344 0.716084
vt 0.465990 0.702305
vt 0.466004 0.705045
vt 0.547960 0.342997
vt 0.555869 0.342997
vt 0.547960 0.350906
vt 0.555869 0.350906
vt 0.460021 0.677021
vt 0.454207 0.677699
vt 0.459500 0.674051
vt 0.460136 0.680812
vt 0.454014 0.674371
vt 0.465702 0.680840
vt 0.460736 0.673966
vt 0.450614 0.675359
vt 0.459883 0.684631
vt 0.465675 0.677599
vt 0.453560 0.671999
vt 0.454235 0.680648
vt 0.465747 0.684172
vt 0.465727 0.674038
vt 0.450935 0.680300
vt 0.453933 0.683698
vt 0.460051 0.671543
vt 0.465802 0.671600
vt 0.546524 0.405406
vt 0.569712 0.405406
vt 0.546524 0.383538
vt 0.546524 0.426950
vt 0.569712 0.383538
vt 0.569712 0.426950
vt 0.569712 0.405406
vt 0.546524 0.405406
vt 0.547960 0.342997
vt 0.555869 0.342997
vt 0.547960 0.350906
vt 0.555869 0.350906
vt 0.448547 0.876475
vt 0.447996 0.874299
vt 0.453036 0.876082
vt 0.445483 0.877458
vt 0.453424 0.873662
vt 0.448755 0.879575
vt 0.454076 0.875984
vt 0.453518 0.878927
vt 0.458369 0.873586
vt 0.453570 0.882558
vt 0.458327 0.875991
vt 0.458265 0.882682
vt 0.448766 0.882294
vt 0.458275 0.879508
vt 0.445781 0.881923
vt 0.448347 0.885104
vt 0.453209 0.886224
vt 0.458217 0.885962
vt 0.546524 0.405406
vt 0.569712 0.405406
vt 0.546524 0.383538
vt 0.546524 0.426950
vt 0.569712 0.383538
vt 0.569712 0.426950
vt 0.569712 0.405406
vt 0.546524 0.405406
vt 0.547960 0.342997
vt 0.555869 0.342997
vt 0.547960 0.350906
vt 0.555869 0.350906
vt 0.569712 0.426950
vt 0.569712 0.405406
vt 0.546524 0.426950
vt 0.569712 0.405406
vt 0.546524 0.405406
vt 0.546524 0.405406
vt 0.546524 0.383538
vt 0.569712 0.383538
vt 0.451617 0.690567
vt 0.454478 0.690029
vt 0.454737 0.693158
vt 0.453620 0.687881
vt 0.459753 0.689754
vt 0.460400 0.692531
vt 0.460181 0.687426
vt 0.461037 0.689703
vt 0.460496 0.696050
vt 0.465860 0.687075
vt 0.466178 0.693090
vt 0.454750 0.696062
vt 0.466083 0.689585
vt 0.451603 0.696313
vt 0.466182 0.696158
vt 0.454099 0.698786
vt 0.466136 0.699358
vt 0.460004 0.699496
vt 0.547960 0.342997
vt 0.555869 0.342997
vt 0.547960 0.350906
vt 0.555869 0.350906
vt 0.544832 0.438551
vt 0.557814 0.441399
vt 0.544832 0.447570
vt 0.557814 0.446038
vt 0.557814 0.447801
vt 0.544832 0.445417
vt 0.557814 0.451307
vt 0.557814 0.446684
vt 0.530209 0.444733
vt 0.544832 0.453282
vt 0.530886 0.437393
vt 0.532232 0.453709
vt 0.534751 0.447086
vt 0.525116 0.443770
vt 0.519713 0.446883
vt 0.514890 0.454716
vt 0.512959 0.436350
vt 0.507196 0.443949
vt 0.511067 0.446995
vt 0.503163 0.445409
vt 0.507066 0.453426
vt 0.505880 0.439133
vt 0.505451 0.446371
vn 0.8558 0.4001 0.3278
vn 0.4493 0.8885 0.0935
vn 0.6480 0.4828 0.5891
vn 0.6549 -0.1899 0.7315
vn 0.2309 0.9575 0.1728
vn 0.8272 -0.0293 0.5611
vn -0.0224 0.9100 -0.4141
vn 0.9377 -0.3471 0.0123
vn 0.2544 -0.7526 0.6073
vn 0.9867 0.1498 0.0626
vn -0.1886 0.9549 -0.2292
vn 0.5957 0.7992 0.0797
vn -0.5738 0.4425 -0.6892
vn 0.8631 -0.4703 -0.1840
vn 0.1207 0.8324 -0.5408
vn -0.3230 0.3817 -0.8660
vn 0.3626 -0.8729 -0.3265
vn -0.0471 0.1795 -0.9826
vn 0.1130 -0.9114 -0.3957
vn -0.5989 -0.5117 -0.6161
vn -0.3736 -0.2526 -0.8925
vn -0.1139 -0.2854 -0.9516
vn -0.3590 -0.5587 -0.7477
vn -0.3490 -0.9243 -0.1543
vn -0.2912 -0.9560 0.0359
vn -0.3403 -0.9249 0.1698
vn -0.3418 -0.8818 0.3251
vn -0.1328 -0.9826 -0.1300
vn -0.2990 -0.8817 0.3649
vn -0.3023 -0.8854 0.3531
vn -0.1739 -0.9669 -0.1866
vn 0.0913 -0.9464 -0.3097
vn -0.0042 -0.9986 -0.0528
vn 0.4086 0.8297 0.3802
vn 0.7716 -0.0191 0.6358
vn 0.4567 0.8106 0.3665
vn -0.2556 0.8936 -0.3690
vn 0.7825 -0.0495 0.6207
vn -0.2760 0.8758 -0.3959
vn 0.4266 -0.8219 0.3775
vn -0.4967 0.5398 -0.6796
vn -0.4854 0.5501 -0.6795
vn 0.3818 -0.8497 0.3636
vn -0.4073 -0.7477 -0.5245
vn -0.3714 -0.7824 -0.4999
vn -0.5892 -0.2493 -0.7685
vn -0.6027 -0.2363 -0.7622
vn 0.1495 -0.1923 -0.9699
vn 0.7667 -0.1294 -0.6288
vn 0.2776 -0.5200 -0.8078
vn 0.8033 -0.5779 -0.1442
vn 0.9991 -0.0417 -0.0055
vn 0.8723 0.4313 -0.2304
vn 0.4408 0.4884 -0.7531
vn 0.2809 0.2894 -0.9151
vn 0.0676 -0.9083 0.4129
vn 0.0654 -0.7150 0.6961
vn -0.0275 -0.7021 0.7115
vn 0.1794 -0.9396 0.2915
vn -0.0843 -0.8288 0.5531
vn 0.0754 -0.9954 0.0592
vn -0.1050 -0.9626 0.2499
vn -0.7243 -0.1298 0.6772
vn -0.7360 -0.1437 0.6616
vn -0.7486 -0.1233 0.6515
vn -0.7123 -0.1514 0.6854
vn -0.7454 -0.1268 0.6545
vn -0.7547 -0.2117 0.6210
vn -0.7462 -0.1284 0.6532
vn -0.7344 -0.1436 0.6634
vn 0.6801 -0.1996 -0.7054
vn 0.6923 -0.1857 -0.6973
vn 0.7349 -0.1007 0.6707
vn -0.6766 -0.0817 -0.7318
vn 0.7523 -0.0682 0.6553
vn -0.6586 -0.0589 -0.7501
vn -0.7042 0.0365 0.7091
vn -0.7156 0.0023 0.6985
vn 0.7062 0.1868 0.6829
vn 0.8305 -0.1583 0.5341
vn 0.0033 0.9980 0.0631
vn -0.4184 0.7822 0.4615
vn 0.2058 0.9698 -0.1312
vn 0.1136 -0.9841 -0.1364
vn 0.5963 0.0508 0.8012
vn -0.3558 0.7087 -0.6092
vn 0.1221 -0.9803 -0.1555
vn 0.5718 -0.5748 -0.5854
vn 0.4433 0.8108 -0.3822
vn 0.5063 -0.6690 -0.5442
vn -0.1180 -0.6901 -0.7141
vn -0.6506 0.7016 -0.2907
vn -0.3364 -0.7641 -0.5505
vn 0.0164 -0.4386 -0.8985
vn -0.9253 0.3684 -0.0895
vn -0.6035 0.5173 0.6067
vn 0.3074 -0.8537 0.4203
vn -0.0632 -0.9955 0.0702
vn -0.0624 -0.9955 0.0709
vn -0.4222 -0.8532 -0.3064
vn 0.6705 0.1545 0.7256
vn 0.8281 -0.1413 0.5425
vn -0.0753 0.9883 0.1326
vn 0.1691 -0.9557 -0.2408
vn 0.2122 0.9673 -0.1392
vn 0.6339 -0.3785 -0.6745
vn -0.5233 0.6335 0.5700
vn 0.4742 0.7804 -0.4076
vn -0.0990 -0.5800 -0.8086
vn 0.6170 -0.0071 0.7870
vn -0.3764 0.6695 -0.6404
vn 0.1046 -0.9810 -0.1634
vn 0.0304 -0.2652 -0.9637
vn -0.6618 0.2940 0.6896
vn 0.4541 -0.7430 -0.4916
vn -0.3662 -0.7241 -0.5844
vn -0.7630 0.5885 -0.2675
vn -0.9744 0.2170 -0.0594
vn 0.6862 0.0044 -0.7274
vn 0.7000 0.0264 -0.7136
vn 0.7646 -0.1100 0.6351
vn -0.6774 -0.0761 -0.7317
vn 0.7767 -0.0659 0.6265
vn -0.6665 -0.0367 -0.7446
vn -0.6612 -0.2054 0.7216
vn -0.6845 -0.2457 0.6864
vn 0.5037 -0.7814 0.3685
vn 0.0846 -0.9905 -0.1084
vn 0.1165 -0.9903 -0.0753
vn -0.3481 -0.7822 -0.5168
vn 0.2129 0.9669 -0.1405
vn -0.4118 0.6392 -0.6495
vn -0.2055 0.9324 0.2974
vn 0.4968 0.7534 -0.4307
vn -0.8405 0.4529 -0.2974
vn 0.8450 -0.1256 0.5198
vn -0.5857 0.5330 0.6106
vn 0.6465 0.0342 0.7622
vn -0.9836 0.1640 -0.0750
vn 0.2320 -0.9106 -0.3420
vn -0.6686 0.2426 0.7029
vn 0.6425 -0.3255 -0.6937
vn 0.1491 -0.9699 -0.1927
vn 0.6263 0.0041 0.7796
vn 0.4767 -0.7142 -0.5124
vn -0.3034 -0.6895 -0.6577
vn -0.1450 -0.5164 -0.8440
vn 0.0003 -0.2285 -0.9736
vn 0.6669 0.0478 -0.7436
vn 0.6773 0.0612 -0.7332
vn 0.7710 -0.0877 0.6307
vn -0.6789 -0.1030 -0.7270
vn 0.7828 -0.0366 0.6211
vn -0.6613 -0.0936 -0.7442
vn -0.6607 -0.2781 0.6973
vn -0.6631 -0.3116 0.6805
vn 0.4340 -0.8837 0.1751
vn 0.1182 -0.9820 -0.1472
vn 0.1188 -0.9820 -0.1466
vn -0.2394 -0.8599 -0.4507
vn -0.6854 -0.0548 -0.7261
vn 0.6373 -0.3540 -0.6845
vn -0.7145 -0.1225 -0.6889
vn -0.6706 0.1861 0.7181
vn 0.6569 -0.3793 -0.6516
vn -0.6459 0.1359 0.7512
vn 0.7423 -0.1104 0.6610
vn 0.7614 -0.0930 0.6415
vn 0.4790 0.7744 -0.4134
vn 0.2076 0.9689 -0.1349
vn 0.8817 -0.0713 0.4664
vn -0.3973 0.6712 -0.6258
vn -0.1634 0.9624 0.2169
vn 0.5731 0.1221 0.8103
vn -0.8017 0.5686 -0.1842
vn -0.4876 0.6873 0.5384
vn 0.3342 -0.8530 -0.4009
vn -0.9176 0.3900 -0.0764
vn 0.6571 0.0096 0.7538
vn 0.2548 -0.9154 -0.3116
vn -0.5669 0.5562 0.6077
vn 0.4598 -0.7366 -0.4960
vn 0.5284 -0.6181 -0.5819
vn -0.2634 -0.6511 -0.7118
vn -0.0994 -0.4139 -0.9049
vn -0.3453 -0.5093 -0.7883
vn 0.2805 -0.7909 0.5439
vn -0.1713 -0.9679 0.1837
vn -0.1668 -0.9679 0.1880
vn -0.5372 -0.8162 -0.2129
vn -0.1775 -0.6935 -0.6982
vn -0.3858 -0.8427 -0.3756
vn -0.9133 0.3883 -0.1227
vn 0.4979 -0.6870 0.5293
vn -0.9792 0.0564 0.1950
vn 0.8232 -0.4444 0.3532
vn -0.1408 0.2166 0.9661
vn -0.4299 -0.6420 0.6349
vn 0.9056 -0.3499 0.2396
vn -0.0083 0.5347 0.8450
vn -0.1883 -0.6976 -0.6913
vn 0.0938 0.6262 0.7740
vn -0.9404 0.3248 -0.1010
vn 0.9263 -0.3603 0.1108
vn -0.9439 0.3026 -0.1325
vn 0.0821 0.6996 0.7098
vn -0.0724 -0.5051 -0.8600
vn 0.9928 -0.0971 -0.0699
vn -0.7090 0.6080 -0.3573
vn 0.8206 0.4088 -0.3994
vn 0.1516 0.9533 0.2614
vn 0.0614 0.0790 -0.9950
vn 0.0940 0.8387 -0.5364
usemtl Material.044
s 1
f 1/1/1 2/2/2 3/3/3
f 4/4/4 1/1/1 3/3/3
f 3/3/3 2/2/2 5/5/5
f 6/6/6 1/1/1 4/4/4
f 2/2/2 7/7/7 5/5/5
f 1/1/1 6/6/6 8/8/8
f 6/6/6 4/4/4 9/9/9
f 1/1/1 10/10/10 2/2/2
f 5/5/5 7/7/7 11/11/11
f 8/8/8 10/10/10 1/1/1
f 2/2/2 10/10/10 12/12/12
f 11/11/11 7/7/7 13/13/13
f 14/14/14 10/10/10 8/8/8
f 7/7/7 2/2/2 15/15/15
f 15/15/15 2/2/2 12/12/12
f 13/13/13 7/7/7 16/16/16
f 8/8/8 17/17/17 14/14/14
f 18/18/18 7/7/7 15/15/15
f 16/16/16 7/7/7 18/18/18
f 17/17/17 19/19/19 14/14/14
f 13/13/13 16/16/16 20/20/20
f 18/18/18 21/21/21 16/16/16
f 20/20/20 16/16/16 21/21/21
f 22/22/22 21/21/21 18/18/18
f 21/21/21 23/23/23 20/20/20
f 22/22/22 23/23/23 21/21/21
f 20/20/20 23/23/23 24/24/24
f 25/25/25 26/26/26 27/27/27
f 28/28/28 26/26/26 25/25/25
f 26/26/26 29/29/29 27/27/27
f 27/27/27 29/29/29 30/30/30
f 31/31/31 26/26/26 28/28/28
f 28/28/28 32/32/32 31/31/31
f 33/33/33 32/32/32 28/28/28
f 34/34/34 35/35/35 36/36/36
f 37/37/37 34/34/34 36/36/36
f 36/36/36 35/35/35 38/38/38
f 39/39/39 34/34/34 37/37/37
f 35/35/35 40/40/40 38/38/38
f 41/41/41 39/39/39 37/37/37
f 42/42/42 39/39/39 41/41/41
f 38/38/38 40/40/40 43/43/43
f 44/44/44 43/43/43 40/40/40
f 45/45/45 43/43/43 44/44/44
f 44/44/44 46/46/46 45/45/45
f 47/47/47 46/46/46 44/44/44
f 48/48/48 49/49/49 50/50/50
f 50/50/50 49/49/49 51/51/51
f 52/52/52 51/51/51 49/49/49
f 49/49/49 53/53/53 52/52/52
f 49/49/49 54/54/54 53/53/53
f 54/54/54 49/49/49 55/55/55
f 56/56/56 57/57/57 58/58/58
f 57/57/57 56/56/56 59/59/59
f 56/56/56 58/58/58 60/60/60
f 59/59/59 56/56/56 61/61/61
f 56/56/56 60/60/60 62/62/62
f 62/62/62 61/61/61 56/56/56
f 63/63/63 64/64/64 65/65/65
f 63/63/63 66/66/66 64/64/64
f 65/65/65 64/64/64 67/67/67
f 64/64/64 66/66/66 68/68/68
f 65/65/65 67/67/67 69/69/69
f 69/69/69 67/67/67 70/70/70
f 71/71/71 72/72/72 73/73/73
f 74/74/74 72/72/72 71/71/71
f 73/73/73 72/72/72 75/75/75
f 76/76/76 72/72/72 74/74/74
f 75/75/75 77/77/77 73/73/73
f 76/76/76 74/74/74 77/77/77
f 73/73/73 77/77/77 78/78/78
f 77/77/77 74/74/74 78/78/78
f 79/79/79 80/80/80 81/81/81
f 79/79/79 81/81/81 82/82/82
f 81/81/81 80/80/80 83/83/83
f 84/84/84 80/80/80 79/79/79
f 79/79/79 82/82/82 85/85/85
f 83/83/83 86/86/86 81/81/81
f 87/87/87 80/80/80 84/84/84
f 84/84/84 79/79/79 88/88/88
f 88/88/88 79/79/79 85/85/85
f 83/83/83 89/89/89 86/86/86
f 90/90/90 80/80/80 87/87/87
f 88/88/88 91/91/91 84/84/84
f 89/89/89 83/83/83 80/80/80
f 81/81/81 86/86/86 92/92/92
f 81/81/81 92/92/92 82/82/82
f 91/91/91 93/93/93 84/84/84
f 84/84/84 93/93/93 87/87/87
f 90/90/90 87/87/87 93/93/93
f 94/94/94 91/91/91 88/88/88
f 95/95/95 82/82/82 92/92/92
f 85/85/85 82/82/82 96/96/96
f 96/96/96 82/82/82 95/95/95
f 97/97/97 98/98/98 99/99/99
f 99/99/99 98/98/98 100/100/100
f 101/101/101 102/102/102 103/103/103
f 104/104/104 102/102/102 101/101/101
f 103/103/103 102/102/102 105/105/105
f 104/104/104 101/101/101 106/106/106
f 101/101/101 103/103/103 107/107/107
f 108/108/108 105/105/105 102/102/102
f 106/106/106 109/109/109 104/104/104
f 101/101/101 107/107/107 110/110/110
f 105/105/105 108/108/108 111/111/111
f 106/106/106 101/101/101 110/110/110
f 105/105/105 111/111/111 103/103/103
f 112/112/112 102/102/102 104/104/104
f 113/113/113 109/109/109 106/106/106
f 110/110/110 107/107/107 114/114/114
f 115/115/115 102/102/102 112/112/112
f 109/109/109 116/116/116 104/104/104
f 103/103/103 117/117/117 107/107/107
f 115/115/115 112/112/112 116/116/116
f 103/103/103 111/111/111 117/117/117
f 114/114/114 107/107/107 118/118/118
f 104/104/104 116/116/116 112/112/112
f 118/118/118 107/107/107 117/117/117
f 119/119/119 120/120/120 121/121/121
f 119/119/119 122/122/122 120/120/120
f 121/121/121 120/120/120 123/123/123
f 120/120/120 122/122/122 124/124/124
f 123/123/123 125/125/125 121/121/121
f 122/122/122 125/125/125 124/124/124
f 121/121/121 125/125/125 126/126/126
f 126/126/126 125/125/125 122/122/122
f 127/127/127 128/128/128 129/129/129
f 129/129/129 128/128/128 130/130/130
f 131/131/131 132/132/132 133/133/133
f 131/131/131 134/134/134 132/132/132
f 133/133/133 132/132/132 135/135/135
f 133/133/133 136/136/136 131/131/131
f 134/134/134 131/131/131 136/136/136
f 133/133/133 135/135/135 137/137/137
f 138/138/138 136/136/136 133/133/133
f 138/138/138 133/133/133 137/137/137
f 139/139/139 137/137/137 135/135/135
f 140/140/140 136/136/136 138/138/138
f 141/141/141 137/137/137 139/139/139
f 140/140/140 138/138/138 142/142/142
f 143/143/143 136/136/136 140/140/140
f 144/144/144 137/137/137 141/141/141
f 138/138/138 137/137/137 144/144/144
f 142/142/142 138/138/138 144/144/144
f 145/145/145 136/136/136 143/143/143
f 140/140/140 146/146/146 143/143/143
f 145/145/145 143/143/143 146/146/146
f 142/142/142 147/147/147 140/140/140
f 147/147/147 146/146/146 140/140/140
f 148/148/148 147/147/147 142/142/142
f 149/149/149 150/150/150 151/151/151
f 149/149/149 152/152/152 150/150/150
f 151/151/151 150/150/150 153/153/153
f 150/150/150 152/152/152 154/154/154
f 153/153/153 155/155/155 151/151/151
f 154/154/154 152/152/152 155/155/155
f 151/151/151 155/155/155 156/156/156
f 155/155/155 152/152/152 156/156/156
f 157/157/157 158/158/158 159/159/159
f 159/159/159 158/158/158 160/160/160
f 161/161/161 162/162/162 163/163/163
f 161/161/161 163/163/163 164/164/164
f 163/163/163 162/162/162 165/165/165
f 164/164/164 163/163/163 166/166/166
f 165/165/165 162/162/162 167/167/167
f 166/166/166 167/167/167 164/164/164
f 167/167/167 162/162/162 168/168/168
f 164/164/164 167/167/167 168/168/168
f 169/169/169 170/170/170 171/171/171
f 170/170/170 169/169/169 172/172/172
f 173/173/173 171/171/171 170/170/170
f 170/170/170 172/172/172 173/173/173
f 174/174/174 171/171/171 173/173/173
f 173/173/173 172/172/172 175/175/175
f 174/174/174 173/173/173 176/176/176
f 173/173/173 175/175/175 176/176/176
f 177/177/177 171/171/171 174/174/174
f 178/178/178 176/176/176 175/175/175
f 179/179/179 177/177/177 174/174/174
f 174/174/174 176/176/176 179/179/179
f 180/180/180 171/171/171 177/177/177
f 181/181/181 176/176/176 178/178/178
f 179/179/179 176/176/176 181/181/181
f 182/182/182 171/171/171 180/180/180
f 183/183/183 177/177/177 179/179/179
f 182/182/182 180/180/180 184/184/184
f 177/177/177 184/184/184 180/180/180
f 185/185/185 177/177/177 183/183/183
f 186/186/186 184/184/184 177/177/177
f 186/186/186 177/177/177 185/185/185
f 187/187/187 188/188/188 189/189/189
f 189/189/189 188/188/188 190/190/190
f 191/191/191 192/192/192 193/193/193
f 191/191/191 194/194/194 192/192/192
f 193/193/193 192/192/192 195/195/195
f 196/196/196 194/194/194 191/191/191
f 197/197/197 193/193/193 195/195/195
f 196/196/196 197/197/197 194/194/194
f 195/195/195 192/192/192 198/198/198
f 197/197/197 195/195/195 198/198/198
f 192/192/192 194/194/194 198/198/198
f 194/194/194 197/197/197 198/198/198
f 196/196/196 191/191/191 199/199/199
f 200/200/200 193/193/193 197/197/197
f 200/200/200 197/197/197 196/196/196
f 199/199/199 191/191/191 201/201/201
f 202/202/202 193/193/193 200/200/200
f 200/200/200 196/196/196 202/202/202
f 202/202/202 196/196/196 199/199/199
f 201/201/201 191/191/191 203/203/203
f 203/203/203 193/193/193 202/202/202
f 203/203/203 191/191/191 193/193/193
f 201/201/201 204/204/204 199/199/199
f 202/202/202 199/199/199 204/204/204
f 205/205/205 201/201/201 203/203/203
f 202/202/202 206/206/206 203/203/203
f 202/202/202 204/204/204 206/206/206
f 203/203/203 206/206/206 205/205/205
f 207/207/207 204/204/204 201/201/201
f 207/207/207 201/201/201 205/205/205
f 206/206/206 204/204/204 208/208/208
f 208/208/208 204/204/204 207/207/207
f 205/205/205 209/209/209 207/207/207
f 206/206/206 209/209/209 205/205/205
f 207/207/207 210/210/210 208/208/208
f 211/211/211 209/209/209 206/206/206
f 210/210/210 211/211/211 208/208/208
f 208/208/208 211/211/211 206/206/206
f 212/212/212 210/210/210 207/207/207
f 207/207/207 209/209/209 212/212/212
f 211/211/211 210/210/210 213/213/213
f 213/213/213 209/209/209 211/211/211
f 213/213/213 210/210/210 212/212/212
f 212/212/212 209/209/209 213/213/213
